<?xml version="1.0" encoding="UTF-8" standalone="no"?>
<!-- Created with Inkscape (http://www.inkscape.org/) -->

<svg
   width="224.78215mm"
   height="39.522129mm"
   viewBox="0 0 224.78215 39.522129"
   version="1.1"
   id="svg5"
   xml:space="preserve"
   inkscape:version="1.2.1 (9c6d41e410, 2022-07-14)"
   sodipodi:docname="Call of Duty 2023.svg"
   xmlns:inkscape="http://www.inkscape.org/namespaces/inkscape"
   xmlns:sodipodi="http://sodipodi.sourceforge.net/DTD/sodipodi-0.dtd"
   xmlns="http://www.w3.org/2000/svg"
   xmlns:svg="http://www.w3.org/2000/svg"><sodipodi:namedview
     id="namedview7"
     pagecolor="#ffffff"
     bordercolor="#000000"
     borderopacity="0.25"
     inkscape:showpageshadow="2"
     inkscape:pageopacity="0.0"
     inkscape:pagecheckerboard="0"
     inkscape:deskcolor="#d1d1d1"
     inkscape:document-units="mm"
     showgrid="true"
     inkscape:zoom="1"
     inkscape:cx="387.5"
     inkscape:cy="181"
     inkscape:window-width="1920"
     inkscape:window-height="1009"
     inkscape:window-x="-8"
     inkscape:window-y="-8"
     inkscape:window-maximized="1"
     inkscape:current-layer="layer1" /><defs
     id="defs2" /><g
     inkscape:label="Layer 1"
     inkscape:groupmode="layer"
     id="layer1"
     transform="translate(6.7561777,-88.9)"><path
       id="rect908"
       style="opacity:1;fill:#000000;fill-opacity:1;stroke:none;stroke-width:1.11043;stroke-linecap:square;stroke-linejoin:round;stroke-dasharray:none"
       d="m -2.2518167,88.9 -4.504361,5.230871 v 29.060389 l 4.504361,5.23087 H 14.45791 l 4.504362,-5.23087 V 111.42181 H 8.9364354 v 10.46174 H 3.2696586 V 95.438589 H 8.9364354 V 105.90033 H 18.962272 V 94.130871 L 14.45791,88.9 Z m 28.0432797,0 -4.504361,5.230871 v 34.291259 h 10.025836 v -11.47885 h 5.666777 v 11.47885 H 47.00555 V 94.130871 L 42.50119,88.9 Z m 23.538351,0 v 39.52213 h 1.816276 9.008721 7.701005 v -7.41039 H 60.154811 V 88.9 Z m 20.488146,0 v 39.52213 h 1.743624 9.299326 7.4104 v -7.41039 h -7.4104 V 88.9 Z m 44.08268,0 v 39.52213 h 10.17115 10.98676 l 4.50435,-5.23087 V 94.130871 L 135.05855,88.9 h -10.98676 z m 28.1324,0 v 34.29126 l 4.50436,5.23087 h 16.70972 l 4.50436,-5.23087 V 88.9 h -10.02583 v 32.98355 h -5.81208 V 88.9 Z m 27.75268,0 v 7.846307 h 5.81207 v 31.675823 h 10.17114 V 96.746307 h 5.85295 V 88.9 Z m 23.68422,0 v 17.87214 l 6.68389,7.71236 v 13.93763 h 11.04295 v -13.7702 l 6.82919,-7.87979 V 88.9 h -9.44463 v 14.9451 l -2.17953,2.49113 h -1.30772 l -2.17952,-2.49113 V 88.9 Z M 31.312938,95.438589 h 5.666777 V 110.4047 h -5.666777 z m 92.758852,0 h 5.46528 v 26.444961 h -5.46528 z m -36.183599,1.162415 -2.087015,2.307805 v 12.820621 l 2.087015,2.30782 h 7.740734 l 2.087014,-2.30782 V 98.908809 l -2.087014,-2.307805 z m 11.426068,0 v 17.436246 h 4.502081 v -5.73943 h 4.79724 v -4.21376 h -4.79724 v -3.2693 h 5.37846 v -4.213756 h -5.37846 z m -8.868527,3.632546 h 2.625652 v 10.17115 h -2.625652 z" /></g></svg>
