<?xml version="1.0" encoding="UTF-8" standalone="no"?>
<svg
   xmlns:dc="http://purl.org/dc/elements/1.1/"
   xmlns:cc="http://creativecommons.org/ns#"
   xmlns:rdf="http://www.w3.org/1999/02/22-rdf-syntax-ns#"
   xmlns:svg="http://www.w3.org/2000/svg"
   xmlns="http://www.w3.org/2000/svg"
   id="svg259"
   version="1.1"
   viewBox="0 0 220.23357 285.45294"
   height="285.45294mm"
   width="220.23357mm">
  <defs
     id="defs253" />
  <metadata
     id="metadata256">
    <rdf:RDF>
      <cc:Work
         rdf:about="">
        <dc:format>image/svg+xml</dc:format>
        <dc:type
           rdf:resource="http://purl.org/dc/dcmitype/StillImage" />
        <dc:title></dc:title>
      </cc:Work>
    </rdf:RDF>
  </metadata>
  <g
     transform="translate(6.3316229,161.32038)"
     id="layer1">
    <path
       id="path61"
       d="m 143.69197,123.93624 c -1.18324,-0.13252 -2.89538,-0.56311 -3.80497,-0.95782 -2.13468,-0.92607 -5.60221,-3.53033 -8.879,-6.66822 -2.58359,-2.47421 -2.59996,-2.49949 -2.59996,-4.02496 v -1.53508 l -2.22158,-0.55795 -2.2218,-0.55804 0.15712,-0.94987 c 1.23673,-7.47748 0.88972,-14.597923 -1.02493,-21.031303 -0.8396,-2.820886 -1.71441,-4.10423 -3.44983,-5.059828 -0.7704,-0.424058 -1.62377,-0.959668 -1.89662,-1.190013 -0.4826,-0.407493 -2.25389,-5.546549 -3.52389,-10.223683 -0.8157,-3.004187 -2.83863,-13.344297 -4.10925,-21.005268 L 109.11486,44.130477 91.027308,23.735218 72.939902,3.3398796 70.189156,9.8819804 C 60.596543,32.69624 56.106591,44.015233 52.834811,53.632125 48.309268,66.934537 46.330772,71.156282 42.151858,76.427193 c -1.933014,2.438098 -6.08514,5.336318 -11.926968,8.325076 -6.076763,3.108829 -10.633211,4.342905 -12.438298,3.368565 -0.339815,-0.183159 -0.687959,-0.26267 -0.773764,-0.17606 -0.08519,0.08661 0.327982,1.937037 0.91925,4.112371 1.175957,4.326245 1.701533,6.766236 1.81512,8.428205 0.07241,1.05906 0.120213,1.09569 2.520969,1.91697 1.345864,0.46097 2.687848,1.13525 2.982275,1.49944 1.242547,1.53721 0.25557,3.56342 -2.102117,4.31404 -1.654064,0.52657 -9.105751,0.72577 -12.075483,0.32277 -3.3196279,-0.45103 -5.9156117,-1.72217 -7.7885669,-3.81524 -1.8334837,-2.04911 -3.6371982,-5.782576 -4.26093289,-8.820035 -1.08101711,-5.263432 -1.40474011,-5.623409 -3.20092941,-3.560242 -0.5325337,0.611571 -1.0143793,1.062748 -1.0708889,1.002547 -0.4410962,-0.47044 -1.0831468,-3.882357 -1.0831468,-5.756401 0,-2.055073 0.1263656,-2.549933 1.2016086,-4.716984 1.939451,-3.907772 3.2877288,-5.725117 7.7488588,-10.444468 L 6.8338219,67.968841 6.6359912,65.327044 6.4381605,62.685294 10.83554,58.521383 c 2.418551,-2.290151 5.739315,-5.327231 7.379606,-6.749056 1.640244,-1.421778 2.982274,-2.628167 2.982274,-2.680796 0,-0.588144 4.663362,-21.139631 5.80264,-25.572128 1.702622,-6.624773 8.242726,-30.0081084 10.87113,-38.868515 l 1.738591,-5.861185 -0.487478,-2.239889 c -0.71981,-3.307985 -1.199289,-10.772067 -0.985273,-15.34357 0.2338,-4.996551 1.1141,-10.994276 2.467631,-16.812203 1.192616,-5.126135 1.360772,-6.355004 2.596978,-18.971587 0.843857,-8.614629 1.100563,-12.039609 1.837364,-24.524194 0.405127,-6.86482 1.559787,-10.17494 5.218756,-14.96249 2.043761,-2.67393 6.102793,-7.5019 7.678955,-9.1341 l 1.516197,-1.56963 2.397112,0.21345 c 1.840536,0.1647 2.601616,0.10838 3.277932,-0.24137 0.484496,-0.25036 2.222709,-0.83718 3.863,-1.30459 1.640386,-0.4676 2.982369,-0.93965 2.982369,-1.0496 0,-0.1098 -0.391402,-0.43257 -0.869272,-0.71777 l -0.869272,-0.51782 -0.200197,-4.8699 c -0.111694,-2.67847 -0.20067,-6.84172 -0.201144,-9.25171 -0.001,-3.81737 0.08992,-4.63683 0.711102,-6.3608 2.042247,-5.67392 5.611198,-9.01382 11.90974,-11.14531 1.903861,-0.64423 3.390005,-0.86886 7.493904,-1.13248 8.132498,-0.5224 11.675185,0.0696 15.390995,2.57208 5.73893,3.86488 9.59588,9.51427 11.01174,16.12955 0.32656,1.5242 0.68384,2.17406 2.02521,3.68198 0.89587,1.00713 1.52386,1.9358 1.39537,2.06363 -0.12826,0.12826 -1.80807,0.85323 -3.73224,1.6119 -3.39639,1.33928 -3.51897,1.42059 -4.2101,2.79197 -0.70523,1.39944 -0.70713,1.43299 -0.21061,3.63563 0.43116,1.91163 0.44772,2.52807 0.11785,4.3989 -0.21156,1.19664 -0.44962,2.34926 -0.52984,2.56129 -0.11169,0.29296 0.61934,0.38525 3.04579,0.38525 h 3.19104 l 1.416,-2.25432 c 0.77888,-1.23985 1.98451,-2.9057 2.67938,-3.70176 l 1.26332,-1.44747 h 5.93866 5.93852 v -1.07965 -1.07969 h 3.36473 3.36469 v 2.31358 2.31362 h 6.42348 6.42354 v 1.07969 1.07965 h 6.72927 6.72932 v -0.92545 c 0,-0.87401 0.0677,-0.9254 1.22352,-0.9254 h 1.22353 v -2.00509 -2.0051 h 1.07055 c 0.86667,0 1.07066,0.11737 1.07066,0.61687 0,0.51417 0.20398,0.61697 1.22338,0.61697 h 1.22356 v 3.54756 3.54756 h 5.35284 5.35288 v -2.15943 -2.15934 h 1.68232 1.68237 v 2.46787 2.46782 h 5.65876 5.65881 v -2.62206 -2.62211 h 2.59982 2.60015 v 5.70689 5.70685 h 4.28232 4.28218 v 3.54756 3.54751 h -16.92233 -16.9221 l -0.34975,1.89672 c -0.19499,1.05754 -0.70315,2.41107 -1.1487,3.05941 -1.19484,1.73874 -5.28535,3.71624 -8.39763,4.059699 -0.71763,0.07951 -0.77045,0.208243 -0.8581,2.089481 -0.10886,2.360101 0.75019,6.267636 2.23908,10.170391 1.43617,3.764937 4.97303,11.444318 6.66704,14.475813 0.79591,1.424476 1.40072,2.636781 1.34388,2.694048 -0.0563,0.05727 -1.67645,0.852281 -3.5991,1.766704 -4.08899,1.944704 -3.27581,2.36403 -6.47224,-3.337187 -2.9739,-5.304419 -4.59753,-9.420575 -6.40508,-16.239014 -0.8723,-3.290758 -1.62775,-6.037718 -1.67872,-6.104261 -0.24374,-0.318517 -1.13128,0.888156 -2.67474,3.637387 l -1.69164,3.013085 -2.99391,0.683179 c -2.21154,0.504894 -3.84909,0.670305 -6.26646,0.633579 -3.79726,-0.05774 -3.20334,-0.370578 -8.20155,4.318815 -1.76836,1.659174 -3.51561,3.112662 -3.8825,3.23013 -0.36679,0.117847 -1.46659,0.842201 -2.44344,1.610522 -2.09885,1.650561 -6.28165,4.302392 -8.83139,5.598893 l -1.81522,0.923084 -7.64705,-0.562634 c -4.20585,-0.309525 -8.28291,-0.618292 -9.06018,-0.686444 l -1.41326,-0.124473 -0.177,1.910056 c -0.25179,2.717668 -0.94046,4.274946 -2.12555,4.80554 -1.28751,0.576406 -1.66783,1.931074 -2.179733,7.763483 -0.420745,4.798057 -0.685308,5.532397 -2.122752,5.896254 -0.367738,0.09324 -0.915606,0.590605 -1.217274,1.105723 -1.032458,1.762633 -1.368297,4.093155 -1.590928,11.041557 l -0.220075,6.86269 1.365174,-0.188365 c 1.006144,-0.138671 1.719424,-0.0284 2.712032,0.413646 3.161226,1.414353 9.260796,7.436395 13.209416,13.041399 1.01603,1.442181 2.49844,3.38556 3.29459,4.318772 3.17234,3.719028 6.01964,9.0177628 7.74635,14.41574903 0.60958,1.90561147 1.10832,3.62158947 1.10832,3.81321547 0,0.1916781 -0.68824,1.4974507 -1.52945,2.9019541 -0.84111,1.4044609 -1.52935,2.6470129 -1.52935,2.7612341 0,0.1145333 3.98955,5.2017643 8.86584,11.3057883 l 8.86571,11.09802 1.96837,7.931497 c 3.48627,14.04882 5.25803,23.813943 5.86487,32.325018 0.248,3.476851 0.0237,3.986384 -3.22734,7.379938 -1.48978,1.554296 -2.50809,2.908632 -2.75112,3.658827 -0.47773,1.47488 -0.23806,3.509649 0.77059,6.539914 0.41176,1.237057 0.74859,2.565836 0.74859,2.952837 0,1.18457 3.43222,4.222266 7.43592,6.581089 2.82728,1.665757 3.99708,2.568487 5.38304,4.153967 4.44773,5.08828 6.75748,10.05222 6.75748,14.52362 0,1.36943 -0.18127,2.01342 -0.87642,3.11934 -1.47838,2.35082 -2.26564,2.57553 -9.21773,2.62949 -3.28054,0.0237 -6.93264,-0.062 -8.11575,-0.19357 z M 111.12592,-94.465634 c 1.76637,-0.150503 3.62266,-0.431157 4.12491,-0.623971 0.50238,-0.192625 1.57706,-1.1017 2.38826,-2.019577 1.30492,-1.476584 1.72818,-1.742141 3.67501,-2.305107 2.71379,-0.785031 9.57217,-3.789971 11.31289,-4.956561 0.70774,-0.47432 1.81545,-1.41046 2.46148,-2.07992 l 1.17449,-1.21727 -8.11253,-0.22718 c -11.41057,-0.31946 -11.30512,-0.33176 -15.6442,1.80462 -4.42823,2.1803 -6.08215,3.30136 -6.53343,4.42833 -0.19025,0.47527 -0.68123,2.444061 -1.09119,4.375608 l -0.74508,3.511874 1.88886,-0.208716 c 1.03884,-0.115007 3.33415,-0.331769 5.10053,-0.482035 z"
       style="opacity:1;fill:#000000;fill-opacity:1;fill-rule:nonzero;stroke:none;stroke-width:0.08939582;stroke-linecap:round;stroke-linejoin:round;stroke-miterlimit:4;stroke-dasharray:none;stroke-dashoffset:0;stroke-opacity:0.97989951;paint-order:normal" />
  </g>
</svg>
