<?xml version="1.0" encoding="UTF-8"?><svg id="Layer_1" xmlns="http://www.w3.org/2000/svg" xmlns:xlink="http://www.w3.org/1999/xlink" viewBox="0 0 1080.21 1080.21"><defs><style>.cls-1{fill:#fff;}.cls-2{fill:url(#linear-gradient);}</style><linearGradient id="linear-gradient" x1="235.31" y1="1097.68" x2="235.31" y2="818.74" gradientTransform="translate(-349.26 4163.79) scale(3.78 -3.78)" gradientUnits="userSpaceOnUse"><stop offset=".18" stop-color="#34b9f0"/><stop offset="1" stop-color="#0c2f9c"/></linearGradient></defs><rect id="rect3411-7" class="cls-2" width="1080.21" height="1080.21"/><path id="_1" class="cls-1" d="m550.1,367.62l.79-40c23.43-.51,114.03-1,122.85-.23,0,0,13.95-152.3,14.7-164.08-46.37,1.28-87.94-.26-124.99.26-37.04.77-69.05-1.79-96.26-1.79-31.5.77-59.47.77-84.17,0,1.76,95.25,3.27,187.93,4.28,267.3,1.01,79.37,1.76,147.73,2.27,205.59.51,67.08,1.01,281.12,1.01,281.12l166.56-35.58c-1.26-35.08-2.02-132.37-2.27-163.86-.25-31.49-.76-80.39-1.51-108.56,21.67-.51,32.51-1.02,47.88-1.02,0,0,44.3-1.74,52.36-.97-.75-23.81,2.7-156.37,2.7-156.37-35.78,1.28-44.22.4-65.38.4h-40.32c-.5-20.74-.75-24.58-.5-40.97v-41.22h0Z"/></svg>