<?xml version="1.0" encoding="UTF-8" standalone="no"?>
<svg
   width="250"
   height="49.516033"
   viewBox="0 0 250.00001 49.516033"
   fill="none"
   version="1.1"
   id="svg142"
   sodipodi:docname="PikminFlat.svg"
   inkscape:version="1.2 (dc2aedaf03, 2022-05-15)"
   xmlns:inkscape="http://www.inkscape.org/namespaces/inkscape"
   xmlns:sodipodi="http://sodipodi.sourceforge.net/DTD/sodipodi-0.dtd"
   xmlns="http://www.w3.org/2000/svg"
   xmlns:svg="http://www.w3.org/2000/svg">
  <sodipodi:namedview
     id="namedview144"
     pagecolor="#505050"
     bordercolor="#eeeeee"
     borderopacity="1"
     inkscape:showpageshadow="0"
     inkscape:pageopacity="0"
     inkscape:pagecheckerboard="0"
     inkscape:deskcolor="#505050"
     showgrid="false"
     inkscape:zoom="1"
     inkscape:cx="112"
     inkscape:cy="21.5"
     inkscape:window-width="1920"
     inkscape:window-height="991"
     inkscape:window-x="-9"
     inkscape:window-y="-9"
     inkscape:window-maximized="1"
     inkscape:current-layer="svg142" />
  <g
     id="g395"
     transform="scale(1.2377195)">
    <path
       id="path129"
       d="m 49.037109,0 v 0.00195313 h -9.009765 c -0.4705,0 -0.943435,0.18101211 -1.302735,0.54296874 C 38.36521,0.90687952 38.185547,1.3815592 38.185547,1.8554687 V 38.150391 c 0,0.473899 0.179663,0.948647 0.539062,1.310546 0.3593,0.362 0.830435,0.542969 1.302735,0.542969 h 9.009765 c 0.4705,0 0.941635,-0.180969 1.302735,-0.542969 0.359399,-0.361899 0.539062,-0.836647 0.539062,-1.310546 V 1.8554687 c 0,-0.4738995 -0.179663,-0.94867732 -0.539062,-1.31249995 C 49.980544,0.18287712 49.509409,0 49.037109,0 Z m 11.25,0 C 59.81661,0 59.345628,0.18101111 58.986328,0.54296875 58.627028,0.90492539 58.447266,1.3815692 58.447266,1.8554687 V 38.148437 c 0,0.4739 0.179762,0.948548 0.539062,1.310547 0.3612,0.3619 0.830282,0.542969 1.300781,0.542969 h 7.388672 c 0.4704,0 0.941482,-0.181069 1.300781,-0.542969 0.3593,-0.361999 0.539063,-0.836647 0.539063,-1.310547 V 25.908203 l 11.402344,13.445312 c 0.1667,0.1978 0.378753,0.362969 0.626953,0.480469 0.25,0.1157 0.514085,0.169922 0.771484,0.169922 h 9.039063 c 0.694599,0 1.358822,-0.396866 1.669922,-1.072265 0.311099,-0.6754 0.184527,-1.444917 -0.263672,-1.978516 L 79.939453,21.691406 v -0.002 c -0.2556,-0.306 -0.916016,-1.189453 -0.916015,-1.189453 0,0 0.596525,-0.76915 0.828124,-1.09375 L 91.654297,2.9492187 C 92.045096,2.4025493 92.126834,1.6633037 91.802734,1.0214843 91.476735,0.37966101 90.830709,0.01171876 90.162109,0.01171876 h -8.611328 c -0.277799,0 -0.559472,0.06293094 -0.826172,0.19726562 -0.264899,0.13433387 -0.48369,0.32493734 -0.65039,0.54882812 L 69.515625,15.03125 V 1.8554687 c 0,-0.4738995 -0.179763,-0.94867732 -0.539063,-1.31249995 C 68.617263,0.18287712 68.148081,0 67.675781,0 Z m 97.582031,0 v 0.00195313 h -9.00976 c -0.472,0 -0.94374,0.18101211 -1.30274,0.54296874 -0.359,0.36195765 -0.53906,0.83663733 -0.53906,1.31054683 V 38.150391 c 0,0.473899 0.18006,0.948647 0.53906,1.310546 0.359,0.362 0.83274,0.542969 1.30274,0.542969 h 9.00976 c 0.471,0 0.94074,-0.180969 1.30274,-0.542969 0.35899,-0.361899 0.53906,-0.836647 0.53906,-1.310546 V 1.8554687 c 0,-0.4738995 -0.18007,-0.94867732 -0.53906,-1.31249995 C 158.81188,0.18287712 158.34014,0 157.86914,0 Z m 42.27344,0 -0.002,0.00195313 h -6.74414 c -0.47,0 -0.94173,0.18101211 -1.30273,0.54296874 -0.359,0.36195765 -0.53906,0.83663733 -0.53906,1.31054683 V 22.111328 L 179.11914,0.91210938 c -0.157,-0.26866874 -0.38287,-0.50191593 -0.67187,-0.66796875 -0.289,-0.16418635 -0.60116,-0.2421875 -0.91016,-0.2421875 h -8.88867 c -0.471,0 -0.93978,0.18101211 -1.30078,0.54296874 -0.358,0.36195765 -0.53907,0.83663733 -0.53907,1.31054683 V 38.150391 c 0,0.473899 0.17907,0.948647 0.53907,1.310546 0.361,0.362 0.82978,0.542969 1.30078,0.542969 h 6.74609 c 0.47,0 0.93978,-0.180969 1.30078,-0.542969 0.357,-0.361899 0.53907,-0.836647 0.53907,-1.310546 V 19.472656 l 11.82812,19.638672 c 0.158,0.265 0.38292,0.491897 0.66992,0.654297 0.285,0.1623 0.59635,0.236328 0.90235,0.236328 h 9.50781 c 0.471,0 0.94373,-0.181069 1.30273,-0.542969 0.358,-0.361999 0.53907,-0.836647 0.53907,-1.310547 V 1.8554687 c 0,-0.4738995 -0.18107,-0.94867732 -0.53907,-1.31249995 C 201.08631,0.18287712 200.61358,0 200.14258,0 Z M 1.8398438,0.00195313 c -0.4704296,0 -0.94147766,0.18101211 -1.3007813,0.54296874 C 0.17975986,0.90687952 0,1.3815692 0,1.8554687 V 38.148437 c 0,0.4739 0.17975986,0.948548 0.5390625,1.310547 0.35930364,0.3619 0.8303517,0.542969 1.3007813,0.542969 h 8.1992182 c 0.4704,0 0.939582,-0.181069 1.300782,-0.542969 0.359299,-0.361999 0.539062,-0.836647 0.539062,-1.310547 v -8.984375 h 9.261719 c 9.110391,0 13.361328,-6.697339 13.361328,-14.582031 0,-7.8846719 -4.519537,-14.58007787 -13.361328,-14.58007787 z m 97.0410152,0 c -0.470399,0 -0.941481,0.18101211 -1.300781,0.54296874 -0.3593,0.36195765 -0.539062,0.83663733 -0.539062,1.31054683 V 38.150391 c 0,0.473899 0.179762,0.948647 0.539062,1.310546 0.3593,0.362 0.830382,0.542969 1.300781,0.542969 h 6.746091 c 0.47,0 0.94178,-0.180969 1.30078,-0.542969 0.359,-0.361899 0.53907,-0.836647 0.53907,-1.310546 V 19.736328 l 7.78125,16.949219 c 0.142,0.309699 0.37068,0.587356 0.67968,0.785156 0.308,0.1977 0.65124,0.292969 0.99024,0.292969 h 3.51172 c 0.34,0 0.68419,-0.09527 0.99219,-0.292969 0.30699,-0.1978 0.53573,-0.473657 0.67773,-0.785156 l 7.39844,-16.115235 v 17.582032 c 0,0.473899 0.18006,0.948547 0.53906,1.310547 0.36,0.361999 0.83078,0.542968 1.30078,0.542968 h 6.74609 c 0.47,0 0.94179,-0.180969 1.30079,-0.542968 0.359,-0.362 0.53906,-0.836648 0.53906,-1.310547 V 1.8554687 c 0,-0.4738995 -0.18006,-0.94867732 -0.53906,-1.31249995 -0.361,-0.36009163 -0.83274,-0.54101562 -1.30274,-0.54101562 h -9.25195 c -0.345,0 -0.69681,0.09750067 -1.00781,0.30273438 -0.311,0.20523279 -0.54074,0.48759493 -0.67774,0.80664059 L 118.67188,20.605469 110.19922,1.1113281 c -0.139,-0.31904566 -0.36674,-0.60327381 -0.67774,-0.80664059 -0.313,-0.20523371 -0.66281,-0.30273438 -1.00781,-0.30273438 z"
       style="font-variation-settings:normal;opacity:1;vector-effect:none;fill:#00b400;fill-opacity:1;stroke-width:1;stroke-linecap:butt;stroke-linejoin:miter;stroke-miterlimit:4;stroke-dasharray:none;stroke-dashoffset:0;stroke-opacity:1;-inkscape-stroke:none;stop-color:#000000;stop-opacity:1" />
    <path
       fill-rule="evenodd"
       clip-rule="evenodd"
       d="m 22.2547,20.015953 c 0.0223,1.4236 -1.0075,2.6084 -2.3003,3.1345 -1.3057,0.5317 -2.8799,0.3918 -3.8486,-0.6754 -0.5778,-0.6362 -0.8519,-1.4385 -0.8871,-2.3826 -0.4816,0.8098 -1.1057,1.3825 -1.9151,1.6605 -1.3372,0.4609 -2.7725,-0.1585 -3.6708,-1.2351 -0.90382,-1.0859 -1.26127,-2.6382 -0.55192,-3.8957 0.42227,-0.75 1.09462,-1.2612 1.97432,-1.5859 -0.9131,-0.2108 -1.64651,-0.6306 -2.15953,-1.3209 -0.84826,-1.1382 -0.7075,-2.7054 0.03148,-3.8976199 0.74639,-1.20341 2.10215,-2.02248 3.50785,-1.73328 0.8371,0.17351 1.528,0.66047 2.1077,1.40118 -0.0834,-0.94034 0.087,-1.77247 0.5797,-2.47773 0.813,-1.16423 2.3354,-1.51313 3.6893,-1.17356 1.365,0.3433 2.5596,1.38812 2.7189,2.82476 0.0963,0.85638 -0.1501,1.6679499 -0.6705,2.4534499 0.8612,-0.3713 1.7002,-0.4646 2.517,-0.2108 1.3502,0.4198 2.1503,1.7706 2.2484,3.1718 0.0982,1.4142 -0.5204,2.8807 -1.8261,3.4796 -0.7779,0.3564 -1.6225,0.3713 -2.5226,0.1138 0.6168,0.7109 0.9631,1.4852 0.9761,2.3472 z"
       fill="#ffffff"
       id="path131" />
    <path
       fill-rule="evenodd"
       clip-rule="evenodd"
       d="m 19.069,15.345953 c 0.35,-1.3825 -0.476,-2.7875 -1.8484,-3.142 -1.3705,-0.3526 -2.767,0.4814 -3.1189,1.8621 -0.35,1.3825 0.4779,2.7874 1.8484,3.1419 1.3724,0.3526 2.767,-0.4795 3.1189,-1.862 z"
       fill="#ffb400"
       id="path133" />
  </g>
  <defs
     id="defs140" />
</svg>
