<svg id="Слой_1" data-name="Слой 1" xmlns="http://www.w3.org/2000/svg" xmlns:xlink="http://www.w3.org/1999/xlink" viewBox="0 0 442.99252 174.95551">
  <defs>
    <style>
      .cls-1 {
        fill: #fff;
      }

      .cls-1, .cls-3, .cls-4 {
        fill-rule: evenodd;
      }

      .cls-2 {
        mask: url(#mask);
      }

      .cls-3 {
        fill: url(#Безымянный_градиент);
      }

      .cls-4 {
        fill: #7567dd;
      }

      .cls-5 {
        fill: url(#Безымянный_градиент_3);
      }

      .cls-6 {
        fill: url(#Безымянный_градиент_4);
      }

      .cls-7 {
        fill: url(#Безымянный_градиент_5);
      }

      .cls-8 {
        fill: url(#Безымянный_градиент_6);
      }

      .cls-9 {
        fill: url(#Безымянный_градиент_7);
      }

      .cls-10 {
        fill: url(#Безымянный_градиент_8);
      }

      .cls-11 {
        fill: url(#Безымянный_градиент_9);
      }

      .cls-12 {
        fill-opacity: 0.87;
        fill: url(#Безымянный_градиент_10);
      }

      .cls-13 {
        fill: url(#Безымянный_градиент_11);
      }

      .cls-14 {
        fill: url(#Безымянный_градиент_12);
      }

      .cls-15 {
        fill: url(#Безымянный_градиент_13);
      }

      .cls-16 {
        fill: url(#Безымянный_градиент_14);
      }

      .cls-17 {
        fill: url(#Безымянный_градиент_15);
      }

      .cls-18 {
        fill: url(#Безымянный_градиент_16);
      }

      .cls-19 {
        fill-opacity: 0.92;
        fill: url(#Безымянный_градиент_17);
      }

      .cls-20 {
        fill: url(#Безымянный_градиент_18);
      }

      .cls-21 {
        fill: url(#Безымянный_градиент_19);
      }

      .cls-22 {
        fill: url(#Безымянный_градиент_20);
      }

      .cls-23 {
        fill: url(#Безымянный_градиент_24);
      }

      .cls-24 {
        fill: url(#Безымянный_градиент_24-2);
      }

      .cls-25 {
        fill: url(#Безымянный_градиент_24-3);
      }
    </style>
    <mask id="mask" x="63.47174" y="0.02037" width="490.90979" height="200.10917" maskUnits="userSpaceOnUse">
      <g id="a">
        <polygon class="cls-1" points="63.472 0.02 554.382 0.02 554.382 200.13 63.472 200.13 63.472 0.02"/>
      </g>
    </mask>
    <linearGradient id="Безымянный_градиент" data-name="Безымянный градиент" x1="-851.19107" y1="630.62034" x2="-851.19107" y2="530.43234" gradientTransform="matrix(1.47499, 0, 0, -1.47499, 1508.73064, 950.78159)" gradientUnits="userSpaceOnUse">
      <stop offset="0" stop-color="#23a8df"/>
      <stop offset="1" stop-color="#315aa4"/>
    </linearGradient>
    <linearGradient id="Безымянный_градиент_3" data-name="Безымянный градиент 3" x1="-1042.06931" y1="539.73158" x2="-1042.06931" y2="356.34436" gradientTransform="matrix(0.87149, 0.10737, 0.11119, -0.9025, 898.39434, 608.11869)" gradientUnits="userSpaceOnUse">
      <stop offset="0" stop-color="#cbe367"/>
      <stop offset="1" stop-color="#278719"/>
    </linearGradient>
    <linearGradient id="Безымянный_градиент_4" data-name="Безымянный градиент 4" x1="186.54403" y1="386.5977" x2="186.54403" y2="369.67171" gradientTransform="matrix(1.90714, -0.61975, -0.62521, -1.92393, -53.68849, 925.96822)" gradientUnits="userSpaceOnUse">
      <stop offset="0" stop-color="#82bd21"/>
      <stop offset="1" stop-color="#399b22"/>
    </linearGradient>
    <linearGradient id="Безымянный_градиент_5" data-name="Безымянный градиент 5" x1="179.68324" y1="257.61305" x2="179.68324" y2="251.20603" gradientTransform="matrix(1.631, 0.64853, 0.89373, -2.24765, -453.68142, 559.13862)" gradientUnits="userSpaceOnUse">
      <stop offset="0" stop-color="#2da21c"/>
      <stop offset="1" stop-color="#2ba01c"/>
    </linearGradient>
    <linearGradient id="Безымянный_градиент_6" data-name="Безымянный градиент 6" x1="171.11963" y1="193.62054" x2="171.11963" y2="179.51856" gradientTransform="matrix(1.2908, 0.86234, 0.9859, -1.47575, -347.79318, 246.09427)" gradientUnits="userSpaceOnUse">
      <stop offset="0" stop-color="#38a31b"/>
      <stop offset="1" stop-color="#1b7d14" stop-opacity="0.72"/>
    </linearGradient>
    <linearGradient id="Безымянный_градиент_7" data-name="Безымянный градиент 7" x1="-106.56097" y1="293.94123" x2="-106.56097" y2="263.07124" gradientTransform="matrix(0.84115, 0, 0, -0.84115, 139.50469, 371.23325)" gradientUnits="userSpaceOnUse">
      <stop offset="0" stop-color="#1c8f18"/>
      <stop offset="1" stop-color="#127411"/>
    </linearGradient>
    <linearGradient id="Безымянный_градиент_8" data-name="Безымянный градиент 8" x1="170.70528" y1="334.69418" x2="170.70528" y2="323.28219" gradientTransform="matrix(1.91867, -0.0014, -0.0014, -1.91867, -264.88914, 693.65779)" gradientUnits="userSpaceOnUse">
      <stop offset="0" stop-color="#a1cf1e"/>
      <stop offset="1" stop-color="#78b820"/>
    </linearGradient>
    <linearGradient id="Безымянный_градиент_9" data-name="Безымянный градиент 9" x1="125.15946" y1="321.74278" x2="125.15946" y2="311.53178" gradientTransform="matrix(1.62246, 0, 0, -1.62246, -153.49588, 601.13671)" gradientUnits="userSpaceOnUse">
      <stop offset="0" stop-color="#a0cf1c"/>
      <stop offset="1" stop-color="#a0cf1c"/>
    </linearGradient>
    <linearGradient id="Безымянный_градиент_10" data-name="Безымянный градиент 10" x1="152.98033" y1="315.22679" x2="152.98033" y2="300.76979" gradientTransform="matrix(1.84674, -0.00135, -0.00135, -1.84674, -241.99131, 674.41525)" gradientUnits="userSpaceOnUse">
      <stop offset="0" stop-color="#75b716"/>
      <stop offset="1" stop-color="#439818"/>
    </linearGradient>
    <linearGradient id="Безымянный_градиент_11" data-name="Безымянный градиент 11" x1="181.02637" y1="356.02869" x2="181.02637" y2="331.52469" gradientTransform="matrix(2.00367, -0.00147, -0.00147, -2.00367, -304.73544, 724.52482)" gradientUnits="userSpaceOnUse">
      <stop offset="0" stop-color="#acd33e"/>
      <stop offset="1" stop-color="#93c71d"/>
    </linearGradient>
    <linearGradient id="Безымянный_градиент_12" data-name="Безымянный градиент 12" x1="108.54708" y1="180.91775" x2="108.54708" y2="162.38477" gradientTransform="matrix(1.37068, 0.42996, 0.28384, -0.90485, -162.25093, 234.64922)" gradientUnits="userSpaceOnUse">
      <stop offset="0" stop-color="#55a318" stop-opacity="0.98"/>
      <stop offset="1" stop-color="#358f18"/>
    </linearGradient>
    <linearGradient id="Безымянный_градиент_13" data-name="Безымянный градиент 13" x1="-37.31151" y1="201.51342" x2="-37.31151" y2="184.62841" gradientTransform="matrix(0.85085, 0.30196, 0.34058, -0.95965, 4.34957, 280.08864)" gradientUnits="userSpaceOnUse">
      <stop offset="0" stop-color="#a5d121"/>
      <stop offset="1" stop-color="#c2de3d" stop-opacity="0.92"/>
    </linearGradient>
    <linearGradient id="Безымянный_градиент_14" data-name="Безымянный градиент 14" x1="167.45048" y1="296.69757" x2="167.45048" y2="273.37158" gradientTransform="matrix(2.00531, -0.00147, -0.00147, -2.00531, -298.4432, 723.39078)" gradientUnits="userSpaceOnUse">
      <stop offset="0" stop-color="#278a19" stop-opacity="0.72"/>
      <stop offset="1" stop-color="#278719"/>
    </linearGradient>
    <linearGradient id="Безымянный_градиент_15" data-name="Безымянный градиент 15" x1="149.94395" y1="358.40184" x2="149.94395" y2="326.69286" gradientTransform="matrix(1.87681, 0, 0, -1.87681, -240.19004, 682.49477)" gradientUnits="userSpaceOnUse">
      <stop offset="0" stop-color="#cae365"/>
      <stop offset="1" stop-color="#a0cf1c"/>
    </linearGradient>
    <linearGradient id="Безымянный_градиент_16" data-name="Безымянный градиент 16" x1="99.33412" y1="285.87335" x2="99.33412" y2="270.78335" gradientTransform="matrix(1.50345, 0, 0, -1.50345, -123.70528, 582.06935)" gradientUnits="userSpaceOnUse">
      <stop offset="0" stop-color="#107311"/>
      <stop offset="1" stop-color="#107311"/>
    </linearGradient>
    <linearGradient id="Безымянный_градиент_17" data-name="Безымянный градиент 17" x1="13.796" y1="350.39214" x2="13.796" y2="315.80614" gradientTransform="matrix(1.12471, -0.00082, -0.00082, -1.12471, 12.74304, 436.42925)" gradientUnits="userSpaceOnUse">
      <stop offset="0" stop-color="#a8d138"/>
      <stop offset="1" stop-color="#3fa021"/>
    </linearGradient>
    <linearGradient id="Безымянный_градиент_18" data-name="Безымянный градиент 18" x1="65.58249" y1="297.57286" x2="65.58249" y2="281.98387" gradientTransform="matrix(1.33578, 0, 0, -1.33578, -68.40126, 512.32269)" gradientUnits="userSpaceOnUse">
      <stop offset="0" stop-color="#278a14" stop-opacity="0.89"/>
      <stop offset="1" stop-color="#197813" stop-opacity="0.86"/>
    </linearGradient>
    <linearGradient id="Безымянный_градиент_19" data-name="Безымянный градиент 19" x1="131.31682" y1="316.05967" x2="131.31682" y2="298.71168" gradientTransform="matrix(1.78034, 0, 0, -1.78034, -221.93835, 652.35584)" gradientUnits="userSpaceOnUse">
      <stop offset="0" stop-color="#2da21c" stop-opacity="0.93"/>
      <stop offset="1" stop-color="#127712" stop-opacity="0.98"/>
    </linearGradient>
    <linearGradient id="Безымянный_градиент_20" data-name="Безымянный градиент 20" x1="146.1786" y1="323.85636" x2="146.1786" y2="315.37736" gradientTransform="matrix(1.88297, -0.00138, -0.00138, -1.88297, -261.41582, 684.40708)" gradientUnits="userSpaceOnUse">
      <stop offset="0" stop-color="#6db225"/>
      <stop offset="1" stop-color="#2ea31c"/>
    </linearGradient>
    <linearGradient id="Безымянный_градиент_24" data-name="Безымянный градиент 24" x1="186.27552" y1="0.61163" x2="186.27552" y2="31.30241" gradientUnits="userSpaceOnUse">
      <stop offset="0" stop-color="#23a8df"/>
      <stop offset="1" stop-color="#2a9dd6"/>
    </linearGradient>
    <linearGradient id="Безымянный_градиент_24-2" x1="208.0893" y1="0" x2="208.0893" y2="31.29894" xlink:href="#Безымянный_градиент_24"/>
    <linearGradient id="Безымянный_градиент_24-3" x1="230.24793" y1="7.63226" x2="230.24793" y2="31.37112" xlink:href="#Безымянный_градиент_24"/>
  </defs>
  <title>Sims Series 2014</title>
  <g>
    <g>
      <g class="cls-2">
        <path class="cls-3" d="M220.8456,36.56218V169.77723H183.03354V148.864A57.984,57.984,0,0,0,189.98,120.34312c0-11.76584-2.66435-20.76548-6.94646-27.78983V36.56218ZM404.87087,85.83052c-11.54415-3.5671-18.62244-6.08365-18.62244-12.60868,0-5.44253,7.282-8.45839,12.29711-8.45839,9.26328,0,14.52208,3.11772,21.5524,9.2533l1.23631,1.06454L440.46,50.76668l-1.17837-.96268a66.66182,66.66182,0,0,0-41.64081-14.98142c-23.1682,0-47.77841,14.29636-47.77841,40.8,0,28.57476,22.00381,35.62907,38.07771,40.774,11.57812,3.72289,18.67836,6.32332,18.67836,12.7365,0,7.36789-10.15607,9.7626-15.07531,9.7626-9.3811,0-17.2363-3.34141-22.68683-9.65874l-1.23231-1.426-12.61067,16.09988L335.12864,36.52623h-31.2291L291.38672,90.74776,277.7135,22.05611l-30.546-.006-24.756,147.72512H258.412l7.256-47.27908,8.45639,47.27908h33.4141l8.93772-47.65456,6.06569,47.65456h37.57239l-1.5958-6.97842.30957.13581a73.20122,73.20122,0,0,0,34.00128,7.9371c30.47816,0,50.16313-17.2583,50.16313-43.96162,0-29.28778-22.03776-36.09843-38.12366-41.08158ZM138.41681,72.08939c-13.91888-4.31008-25.94037-8.031-25.94037-19.29749,0-9.69668,11.37238-14.21049,19.08179-14.21049,11.89766,0,19.11575,3.95856,26.85712,10.3418l1.28623,1.04856L179.28468,25.086l-1.32617-1.00462a80.927,80.927,0,0,0-47.57267-16.014c-27.39438,0-56.52237,16.731-56.52237,47.75042,0,33.33822,24.13086,41.07359,45.40963,47.90421,13.94086,4.46587,25.98032,8.31858,25.98032,19.41534,0,11.53415-13.821,15.42281-22.543,15.42281-20.60171,0-35.30152-14.82963-39.88322-19.19763L63.47174,147.3061C80.47639,161.36078,94.599,168.09554,108.2842,170.69a95.23867,95.23867,0,0,0,16.05994,1.36213c16.66711,0,31.59261-4.57771,42.02827-12.88032,11.44828-9.08951,17.5-22.52106,17.5-38.82867C183.87238,86.13211,159.72954,78.67036,138.41681,72.08939Z"/>
      </g>
      <polygon class="cls-4" points="68.451 63.287 79.865 97.093 59.533 94.551 57.314 74.157 68.451 63.287"/>
      <polygon class="cls-4" points="79.865 97.093 78.112 99.801 78.03 99.747 54.77 107.347 59.533 94.551 79.865 97.093"/>
      <polygon class="cls-4" points="78.11 99.801 69.631 112.915 69.523 112.845 47.112 127.913 54.77 107.347 78.03 99.747 78.11 99.801"/>
      <polygon class="cls-4" points="69.631 112.915 29.772 174.501 47.112 127.913 69.523 112.845 69.631 112.915"/>
      <path class="cls-4" d="M64.43841,51.36386l4.01229,11.923L57.3146,74.156,55.60085,58.30313a86.491,86.491,0,0,0,8.83766-6.93907"/>
      <polygon class="cls-4" points="57.314 74.157 59.533 94.551 39.345 92.026 39.389 91.669 57.314 74.157"/>
      <path class="cls-4" d="M59.53315,94.55054,54.76889,107.347l-.04435.00926s-24.15682,9.0961-31.0873,11.18643L20.47858,89.66832l39.05436,4.88289Z"/>
      <path class="cls-4" d="M50.27786,9.40249l14.161,41.96237a86.49337,86.49337,0,0,1-8.83846,6.93807L50.27806,9.40209Z"/>
      <path class="cls-4" d="M54.76969,107.347l-7.65688,20.56576-.06375.05L26.46732,144.36157,23.63761,118.543c6.93068-2.09033,31.08731-11.18643,31.08731-11.18643l.04434-.00926Z"/>
      <path class="cls-4" d="M55.60055,58.30233l1.71374,15.85282L39.38771,91.6689l-.04434.35625-18.8651-2.35876-.02309-.16193L26.6986,72.73269A123.96959,123.96959,0,0,0,55.60091,58.30211"/>
      <polygon class="cls-4" points="47.048 127.963 47.112 127.913 29.772 174.501 26.469 144.362 47.048 127.963"/>
      <path class="cls-4" d="M50.27786,9.40249l5.32229,48.90083A123.89972,123.89972,0,0,1,26.69784,72.7339l23.57962-63.331Z"/>
      <polygon class="cls-4" points="26.467 144.362 29.774 174.501 21.334 149.677 26.131 144.624 26.467 144.362"/>
      <path class="cls-4" d="M50.27786,9.40249l-23.57962,63.331a134.684,134.684,0,0,1-21.04709,5.7453L50.27786,9.40169Z"/>
      <path class="cls-4" d="M23.63645,118.5416l2.82971,25.81854-.33628.26279-4.79661,5.05227L11.8461,121.76154c.74464-.16749,5.44432-1.30473,11.74587-3.21279.01386.00185.02956-.01018.04435-.00852"/>
      <path class="cls-4" d="M20.47878,89.66725l3.15867,28.87435c-.01479-.00185-.03049.01018-.04435.00832-6.30155,1.908-11.00129,3.04522-11.74587,3.21379L.0754,87.1153l20.404,2.5511Z"/>
      <path class="cls-4" d="M26.69824,72.73451,20.45482,89.50627l.02309.16193L.07394,87.11611,5.65028,78.48a134.831,134.831,0,0,0,21.04709-5.7453"/>
    </g>
    <g>
      <polygon id="polygon-1" class="cls-5" points="0.009 87.446 29.833 174.802 79.989 97.257 50.371 9.313 0.009 87.446"/>
      <polygon class="cls-6" points="68.62 63.249 80.122 97.199 59.706 94.661 57.463 74.154 68.62 63.249"/>
      <polygon class="cls-7" points="80.122 97.183 78.363 99.919 78.28 99.865 54.866 107.579 59.706 94.629 80.122 97.183"/>
      <polygon class="cls-8" points="78.357 99.919 69.864 113.093 69.744 113.022 47.207 128.265 54.924 107.497 77.633 98.085 78.357 99.919"/>
      <polygon class="cls-9" points="69.858 113.093 29.883 174.956 47.259 128.167 69.749 113.022 69.858 113.093"/>
      <path class="cls-10" d="M64.599,51.29669,68.6362,63.26545,57.46272,74.1865,55.7143,58.26964a86.68773,86.68773,0,0,0,8.85231-7.02108"/>
      <polygon class="cls-11" points="57.463 74.187 59.706 94.661 39.434 92.141 39.478 91.782 57.463 74.187"/>
      <path class="cls-12" d="M59.70553,94.66109l-4.77525,12.85155-.04405.01006s-24.24773,9.1499-31.20456,11.25455L20.4902,89.7888Z"/>
      <path class="cls-13" d="M50.35031,9.17753,64.599,51.29865a86.87943,86.87943,0,0,1-8.8685,6.971L50.35031,9.17551Z"/>
      <path class="cls-14" d="M55.0244,107.33406,47.259,128.16693l-.0641.05017L26.52623,144.69783l-2.90483-25.9807c6.95708-2.10464,31.31278-11.22659,31.31278-11.22659Z"/>
      <path class="cls-15" d="M55.73046,58.26963l1.73226,15.91485L39.47577,91.78224l-.04379.35895-18.92389-2.3223-.09218-.19448,6.30641-16.84517A124.63067,124.63067,0,0,0,55.73043,58.23352"/>
      <polygon class="cls-16" points="47.195 128.167 47.341 128.101 29.883 174.956 26.494 144.666 47.195 128.167"/>
      <path class="cls-17" d="M50.35031,9.17753l5.38015,49.09412A124.483,124.483,0,0,1,26.72232,72.7812Z"/>
      <polygon class="cls-18" points="26.542 144.698 29.885 174.956 21.393 150.038 26.206 144.961 26.542 144.698"/>
      <path class="cls-19" d="M50.35031,9.17753,26.72232,72.7812A135.35437,135.35437,0,0,1,5.59441,78.56394L50.35031,9.17551Z"/>
      <path class="cls-20" d="M23.68167,118.77523l2.87662,25.92055-.33881.29706-4.811,5.091-9.56171-28.12348c.74574-.169,5.53763-1.31355,11.865-3.23323.012.002.05415.07016.0703.07014"/>
      <path class="cls-21" d="M20.54016,89.81887l3.15765,28.94031c-.0142-.002-.17645.05833-.19065.05632-6.32516,1.92169-10.91268,3.034-11.66038,3.203L.002,87.239Z"/>
      <path class="cls-22" d="M26.75214,72.717l-6.2159,17.10379.036.02408L0,87.25706l5.58645-8.70713a130.13276,130.13276,0,0,0,21.19773-5.869"/>
      <g>
        <polygon class="cls-23" points="175.317 7.45 183.033 7.45 183.039 30.667 190.266 30.653 190.262 7.446 197.234 7.446 197.234 0.612 177.286 0.622 175.317 7.45"/>
        <path class="cls-24" d="M210.76029,7.56207a8.0591,8.0591,0,0,0-6.16815,2.83356L204.58793,0h-5.85138l.0061,30.65118h6.45313V17.20959c-.00415-2.51861,1.27923-3.8883,3.30853-3.8883,1.65259,0,2.41657,1.02472,2.41657,3.16644l.01007,14.15949h6.51111L217.434,14.47034C217.434,10.12488,214.735,7.56207,210.76029,7.56207Z"/>
        <path class="cls-25" d="M230.93192,24.70752a5.54009,5.54009,0,0,1-3.71789-1.36969l14.29175-9.23041c-2.78321-4.36157-6.17426-6.47516-10.57807-6.47516-7.197.004-11.93762,4.913-11.93762,11.62476a11.24359,11.24359,0,0,0,11.641,11.6228A16.85154,16.85154,0,0,0,240.68967,27.186l-3.50927-4.96918C234.792,23.84717,232.72868,24.70752,230.93192,24.70752Zm-5.2561-6.03a5.20694,5.20694,0,0,1,5.37823-5.41229,4.96913,4.96913,0,0,1,2.49463.67981l-7.87878,5.07342Z"/>
      </g>
    </g>
  </g>
</svg>
