<?xml version="1.0" encoding="utf-8"?>
<!-- Generator: Adobe Illustrator 23.1.0, SVG Export Plug-In . SVG Version: 6.00 Build 0)  -->
<svg version="1.1" id="Layer_1" xmlns="http://www.w3.org/2000/svg" xmlns:xlink="http://www.w3.org/1999/xlink" x="0px" y="0px"
	 viewBox="0 0 961.5 468.2" style="enable-background:new 0 0 961.5 468.2;" xml:space="preserve">
<style type="text/css">
	.st0{fill:#010101;}
	.st1{fill:#FFD108;}
	.st2{fill:#47AF49;}
	.st3{fill:#E42E26;}
	.st4{fill:#0DA0DA;}
</style>
<g>
	<path class="st0" d="M959.4,296.1l-56.6-80c-1.3-1.9-3.4-3.1-5.6-3.4l-56.1-6.8l15.5-6.5c1.7-0.7,2.8-2.4,2.8-4.3v-28.7
		c0-1.9-0.8-3.8-2.3-5.1l-19.6-16.7c0.6-0.4,1.1-1,1.2-1.7l11.6-70c0.4-2,0.5-4.1,0.5-6.1V50c0-1.9-1-3.7-2.7-4.6L785.1,8.3
		c-1.7-1-3.7-1.4-5.7-1.1l-93.2,14.3c-1.7,0.2-3,1.8-3,3.5V31l-95.3-16.6c-1.8-0.3-3.4,0.7-3.9,2.4L578,37.5L532.7,13
		c-1.8-0.9-3.8-1.3-5.7-0.9l-92.5,17c-1.7,0.3-3,1.9-3,3.6v16.8c0,0.3,0,0.6,0,0.9l-56.7-7.5V29.8c0-1.7-1.3-3.2-3.1-3.4L288,18.6
		c-1.7-0.1-3.2,1.1-3.3,2.8l-0.4,6.9L249.5,1.6C248,0.4,246-0.1,244,0l-71.6,6.8c-1.9,0.2-3.7,1.2-4.8,2.9l-38.5,57.4
		c-1.1,1.7-1.7,3.6-1.7,5.6v27c0,1.9,1,3.7,2.6,4.7l12.2,7.4L123,137.6c-1.2,1.6-1.8,3.5-1.8,5.5l0,26.6c0,2,1,3.7,2.4,5.1
		l18.2,15.5l-50.7-6.8c-2.1-0.3-4.1,0.9-4.9,2.8L1.4,384.6c-0.9,2.2-1.4,4.5-1.4,6.9v23.4c0,2.2,1.3,4.1,3.3,5l97.7,41.7
		c1.8,0.8,3.8-0.2,4.4-2l26.6-86.9l23.4,42.1c0.8,1.5,2.9,1.7,4,0.3l30.5-37.5l5.2,87.2c0.1,1.9,1.9,3.2,3.7,2.8l83.5-17.3
		l57.6,10.9c1.9,0.4,3.8-1,4.1-2.9l7.2-42.9l30.1-4.5l9.6,46.4c0.4,1.9,2.3,3.2,4.2,2.8l65.9-12.4l1,8.4c0.2,2,2,3.4,4,3.2l79.1-7.1
		c2-0.2,3.6-1.9,3.6-3.9l-0.1-22.9l22.8,34.8c1.1,1.7,3.3,2.4,5.2,1.5l58-26l-0.4,20.7c0,1.9,1.6,3.5,3.5,3.3l76.7-5.3
		c2.1-0.1,3.8-1.7,4.2-3.8l9.9-55.5l13.2,37.9c0.7,2.1,2.4,3.8,4.5,4.5l92.1,30c2.2,0.7,4.6,0.6,6.7-0.4l87.4-39.9
		c2-0.9,3.6-2.8,4.1-5l24-95c0.6-2.3,0.9-4.7,0.9-7.1v-17.9C961.5,300.3,960.8,298,959.4,296.1"/>
	<path class="st1" d="M783.2,106.1l-29.2,4.7l-1.5-51l35.9,12.7L783.2,106.1z M841,165.7l-42.3-36.1l25.1-15.6
		c1.3-0.8,2.2-2.2,2.5-3.7l8.9-53.8c0.2-1.5-0.4-2.9-1.7-3.7l-51.6-30.4c-1.4-0.8-3-1.1-4.5-0.9l-76.7,11.8
		c-0.5,0.1-0.9,0.3-1.2,0.6l9.6,1.7c1.7,0.3,2.8,1.9,2.5,3.5l-7.9,47.1l10.3,100.4c0.2,1.4,1.3,2.4,2.7,2.2l37.4-3.3
		c1.4-0.1,2.4-1.3,2.4-2.7l-1.5-48.4l1.8-0.4l34.2,52.7c0.8,1.2,2.3,1.7,3.6,1.1l46.2-19.6C841.7,167.8,841.9,166.4,841,165.7"/>
	<path class="st2" d="M685.9,143.3l-55.5,8.2l-4-27.3l44.8,6.8c1,0.1,1.9-0.5,2-1.5l3.9-29.8c0.1-0.9-0.6-1.8-1.6-1.8l-46.1-0.7
		l7-25.6l51.2,15.5c0.9,0.3,1.8-0.3,2-1.3l6.2-36.9c0.1-1-0.5-1.9-1.5-2l-98-17.1c-1-0.2-1.9,0.4-2.2,1.4l-3.7,12.9l6,3.2
		c1.6,0.9,2.5,2.7,2.3,4.5l-9.5,64.5c-0.3,2-1.2,3.8-2.7,5.2l-15,14.3l7.2,44.3c0.2,1,1,1.8,2.1,1.8l111.7,4c0.9,0,1.7-0.8,1.5-1.7
		l-6-39.5C687.8,143.8,686.9,143.2,685.9,143.3"/>
	<path class="st3" d="M532.3,107.2l-29.1,5.1l-3-48.8l37,12.8L532.3,107.2z M581.9,55.2l-52.1-28.1c-1.4-0.8-3-1-4.6-0.7l-76.2,14
		c-1.3,0.3-2.3,1.5-2.1,2.9l1.1,9.3l9.7,1.3c1.7,0.2,2.8,1.8,2.5,3.4l-6.8,40.3l10.6,87.7c0.1,1.4,1.4,2.3,2.7,2.2l38.2-3.8
		c1.4-0.1,2.4-1.3,2.3-2.7l-2.2-36l36.6-2c1.6-0.1,3.1-0.7,4.2-1.8l28-26.7c1.1-1.1,1.9-2.6,2.2-4.1l7.6-51.6
		C584,57.3,583.3,55.9,581.9,55.2"/>
	<path class="st1" d="M442.5,65.7l-56.3-7.5c-1.3-0.2-2.4,0.9-2.3,2.1l3.4,75.2l-44.5,2.9l15.7-97.1c0.2-1.3-0.7-2.5-2-2.7
		l-56.3-5.3c-1.3-0.1-2.5,0.9-2.6,2.2l-0.1,2.6l6.2,4.8c1.6,1.2,2.6,3,2.8,4.9l0.3,2.8c0.2,1.9-0.3,3.9-1.6,5.5l-9.8,12.4l-2.6,41.4
		l3.7,2.4c1.6,1.1,2.8,2.7,3.3,4.7l0.6,2.3c0.5,1.9,0.3,4-0.5,5.8l-9.3,21.2l-0.1,1.9c-0.1,1.6,0.5,3.1,1.7,4.1l32.3,29
		c1.1,1.1,2.7,1.7,4.3,1.7l70.9,1.8c1.6,0,3.1-0.6,4.1-1.8l24.9-28.4c1.1-1.2,1.8-2.7,2-4.3l13.8-82
		C444.8,67.2,443.8,65.9,442.5,65.7"/>
	<path class="st4" d="M221.9,50.8l43.6,29.9c1.1,0.8,2.7,0.5,3.6-0.5l21.2-27c0.8-1.1,0.7-2.6-0.4-3.4L245,15.4
		c-1.3-1-2.8-1.4-4.4-1.2L179.7,20c-1.6,0.2-3,1-3.8,2.3l-32.4,48.5c-0.7,1.1-0.4,2.6,0.7,3.3l79.3,48.3l-16.2,22l-42.2-35.6
		c-1-0.8-2.6-0.7-3.4,0.4L136.9,142c-0.8,1.1-0.7,2.6,0.4,3.5l43.4,37c1.2,1,2.7,1.6,4.3,1.6l72.1-1.3c1.5,0,2.8-0.9,3.5-2.3
		l24.7-56c0.5-1.3,0.1-2.8-1.1-3.6l-75-49.4L221.9,50.8z"/>
	<path class="st2" d="M830.2,357.3l-32-33.9l23-39.5l42.7,11.4l5.3,42.6L830.2,357.3z M942.3,299.9l-49-69.2
		c-1.1-1.5-2.7-2.5-4.5-2.7l-95.4-11.6c-1.8-0.2-3.5,0.5-4.7,1.9l-42.1,53.2l-11.8,66.9l19.9,57.4c0.6,1.7,1.9,3,3.7,3.6l79.7,26
		c1.7,0.6,3.6,0.5,5.3-0.3l75.9-34.6c1.7-0.7,2.9-2.2,3.3-4l20.6-81.6C943.7,303.3,943.3,301.4,942.3,299.9"/>
	<path class="st4" d="M735.4,225.2l-72.9-17.4c-1.4-0.4-2.8,0.7-2.9,2.2l-6.2,162.9l9,7.5c1.7,1.4,2.6,3.6,2.3,5.8l-1.2,8.4
		c-0.3,2.2-1.7,4.1-3.7,5l-7.5,3.3l-0.5,11.8c-0.1,1.5,1.2,2.8,2.8,2.7l47.4-3.2c1.7-0.1,3.1-1.4,3.3-3l32.4-182.5
		C738,227.1,737,225.6,735.4,225.2"/>
	<path class="st1" d="M565.9,305.9l-37.4,8.7l-2.2-60.3l44.4,12L565.9,305.9z M643.8,386.1l-56.2-46.7l35.7-20.8
		c1.6-0.9,2.7-2.5,3-4.3l12.4-64.8c0.3-1.7-0.4-3.4-1.9-4.2L564.4,203c-1.6-0.9-3.5-1.3-5.3-1l-102.4,16.6c-1.6,0.2-2.7,1.7-2.5,3.3
		l14.2,122.6l24.7,71.1l36-3.2c1.6-0.2,2.8-1.5,2.8-3.1l-2.3-63.5l2.4-0.5l45.9,70c0.9,1.4,2.7,1.9,4.2,1.2l61.3-27.5
		C644.6,388.5,644.9,386.9,643.8,386.1"/>
	<path class="st2" d="M345.9,324.8l9.3-55l19,1.5l11.4,54.9L345.9,324.8z M471.1,401.5L408.9,223c-0.6-1.7-2.1-2.8-3.8-3l-85-8.7
		c-1.6-0.2-3.2,0.9-3.6,2.5l-28.1,96.8l20.8,103.3l18.1,3.4c1.6,0.3,3-0.7,3.3-2.3l6.6-38.8l56.9-8.6l9.7,46.6
		c0.3,1.6,1.9,2.6,3.4,2.3l62-11.7C470.7,404.4,471.6,402.9,471.1,401.5"/>
	<path class="st3" d="M253.8,221c-0.4-1.7-1.7-3-3.4-3.2l-46.6-6.3c-1.7-0.2-3.4,0.7-4.1,2.2l-30.9,59.8l-21.3-63.4
		c-0.6-1.7-2-2.9-3.8-3.1l-43.2-5.7c-1.7-0.2-3.3,0.7-3.9,2.2l-76,177.9c-0.6,1.4,0,3.1,1.5,3.8l69.5,29.7c1.4,0.6,3-0.1,3.5-1.6
		l32.8-106.8l30.6,55.1c0.7,1.2,2.3,1.4,3.2,0.3l42.1-51.8l6.6,110.8c0.1,1.5,1.5,2.6,3,2.3l75.3-15.6c1.5-0.3,2.5-1.8,2.2-3.4
		L253.8,221z"/>
</g>
</svg>
