<?xml version="1.0" encoding="UTF-8" standalone="no"?>
<!-- Created with Inkscape (http://www.inkscape.org/) -->

<svg
   xmlns:dc="http://purl.org/dc/elements/1.1/"
   xmlns:cc="http://creativecommons.org/ns#"
   xmlns:rdf="http://www.w3.org/1999/02/22-rdf-syntax-ns#"
   xmlns:svg="http://www.w3.org/2000/svg"
   xmlns="http://www.w3.org/2000/svg"
   xmlns:sodipodi="http://sodipodi.sourceforge.net/DTD/sodipodi-0.dtd"
   xmlns:inkscape="http://www.inkscape.org/namespaces/inkscape"
   width="221.40665mm"
   height="151.48328mm"
   viewBox="0 0 221.40665 151.48328"
   version="1.1"
   id="svg8"
   sodipodi:docname="ChessClub.svg"
   inkscape:version="0.92.4 (5da689c313, 2019-01-14)">
  <defs
     id="defs2" />
  <sodipodi:namedview
     id="base"
     pagecolor="#ffffff"
     bordercolor="#666666"
     borderopacity="1.0"
     inkscape:pageopacity="0.0"
     inkscape:pageshadow="2"
     inkscape:zoom="0.7"
     inkscape:cx="442.47075"
     inkscape:cy="295.25077"
     inkscape:document-units="mm"
     inkscape:current-layer="layer1"
     showgrid="false"
     showguides="true"
     fit-margin-top="0"
     fit-margin-left="0"
     fit-margin-right="0"
     fit-margin-bottom="0"
     inkscape:window-width="1366"
     inkscape:window-height="705"
     inkscape:window-x="-8"
     inkscape:window-y="-8"
     inkscape:window-maximized="1" />
  <metadata
     id="metadata5">
    <rdf:RDF>
      <cc:Work
         rdf:about="">
        <dc:format>image/svg+xml</dc:format>
        <dc:type
           rdf:resource="http://purl.org/dc/dcmitype/StillImage" />
        <dc:title></dc:title>
      </cc:Work>
    </rdf:RDF>
  </metadata>
  <g
     inkscape:label="Layer 1"
     inkscape:groupmode="layer"
     id="layer1"
     transform="translate(404.06268,-146.76562)">
    <path
       style="font-style:normal;font-variant:normal;font-weight:normal;font-stretch:normal;font-size:40px;line-height:1.25;font-family:HelveticaNeueW01-65Medium;-inkscape-font-specification:HelveticaNeueW01-65Medium;letter-spacing:14.08594227px;word-spacing:0px;fill:#000000;fill-opacity:1;stroke:none;stroke-width:0.70682317"
       d="m -297.06457,146.76562 c -37.11081,0.0151 -68.74505,26.91653 -74.72204,63.54289 h 3.85815 c 5.93453,-34.51203 35.84541,-59.74548 70.86389,-59.7824 39.75393,1.6e-4 71.98076,32.2272 71.98063,71.98114 -0.0292,3.81634 -0.36182,7.62433 -0.99478,11.38793 h 15.5267 v -3.14968 h -11.35692 c 0.34502,-2.73338 0.54065,-5.48356 0.586,-8.23825 -5e-5,-41.83093 -33.91069,-75.74158 -75.74163,-75.74163 z m -99.12004,65.91277 c -0.87717,0 -1.76162,0.0925 -2.62051,0.3452 -0.85889,0.23329 -1.3258,0.43608 -2.00194,0.94154 -0.67617,0.50546 -1.22455,1.1468 -1.64487,1.92444 -0.40203,0.75819 -0.58652,1.5955 -0.58652,2.64531 0,0.54435 0.0643,1.07913 0.19224,1.60404 0.14621,0.52491 0.38368,1.02066 0.71261,1.48725 0.32893,0.46658 0.76745,0.8943 1.31569,1.28312 0.5665,0.36937 1.53702,0.83745 2.37762,1.07074 1.35232,0.38882 1.91762,0.54412 2.83136,0.79685 0.932,0.23329 1.74522,0.48644 2.43965,0.75861 0.40203,0.15553 0.76763,0.42767 1.09656,0.81648 0.34721,0.36938 0.63717,0.95217 0.63717,1.74925 0,0.38882 -0.1897,0.94341 -0.33589,1.33222 -0.14618,0.36938 -0.38367,0.69955 -0.71263,0.99115 -0.32893,0.29161 -0.75832,0.53475 -1.28828,0.72916 -0.52996,0.17495 -1.16951,0.26252 -1.91876,0.26252 -0.69442,0 -1.34358,-0.0775 -1.94664,-0.23307 -0.58478,-0.17496 -1.10533,-0.43761 -1.56218,-0.78754 -0.45686,-0.36938 -0.81333,-0.83613 -1.06918,-1.39992 -0.20355,-0.44852 -0.32229,-0.97429 -0.3638,-1.57044 h -3.42977 c 0.0618,1.08765 0.28466,2.04884 0.66868,2.88302 0.4386,0.93316 1.02346,1.70107 1.75443,2.30374 0.73099,0.60267 1.58977,1.04939 2.57659,1.341 0.98681,0.29161 2.03753,0.4377 3.15227,0.4377 0.96853,0 1.919,-0.12658 2.85096,-0.37931 0.932,-0.23328 1.76345,-0.61198 2.49444,-1.13688 0.73097,-0.5249 1.31583,-1.19576 1.7544,-2.01228 0.45688,-0.83595 0.68525,-1.8375 0.68525,-3.00395 0,-0.54435 -0.082,-1.08863 -0.24652,-1.63297 -0.14618,-0.54435 -0.38417,-1.0496 -0.71313,-1.51619 -0.31067,-0.48602 -0.7036,-0.91375 -1.17874,-1.28312 -0.47506,-0.36937 -1.03212,-0.66104 -1.67172,-0.87489 -0.25585,-0.0778 -0.63516,-0.27803 -1.23817,-0.43356 -0.58478,-0.17497 -1.18787,-0.35007 -1.80919,-0.52504 -0.90768,-0.22464 -1.54038,-0.41536 -2.43809,-0.6692 -0.69442,-0.21385 -1.12257,-0.50074 -1.56114,-0.90899 -0.42032,-0.4277 -0.63045,-1.01101 -0.63045,-1.74977 0,-0.5249 0.10988,-0.96264 0.32916,-1.31258 0.23757,-0.34993 0.52975,-0.62208 0.87697,-0.81649 0.34718,-0.21385 0.63076,-0.35938 1.05108,-0.43718 0.42032,-0.0972 0.83148,-0.14573 1.23351,-0.14573 1.18785,0 2.17856,0.28164 2.94609,0.84543 0.68368,0.4849 1.2665,1.28713 1.45055,2.4045 h 3.57756 c -0.0696,-0.91361 -0.35494,-1.72483 -0.70384,-2.43344 -0.40201,-0.83596 -1.16282,-1.53582 -1.85725,-2.09961 -0.67614,-0.56379 -1.47113,-0.98202 -2.38487,-1.25419 -0.89543,-0.29161 -2.0674,-0.33693 -3.09076,-0.33693 z m 17.85835,0.39533 v 3.14968 h 5.84562 c -0.19497,2.08882 -0.30512,4.18513 -0.32607,6.28385 5e-5,41.83113 33.91106,75.74188 75.74214,75.74164 36.35242,-0.0267 67.55921,-25.87636 74.35206,-61.58849 h -3.78428 c -6.74333,33.62534 -36.27294,57.82368 -70.56778,57.82746 -39.75386,1.1e-4 -71.98096,-32.22669 -71.98112,-71.98061 0.0172,-2.09898 0.12822,-4.19541 0.32867,-6.28385 h 5.62496 v -3.14968 z m 52.16218,0 v 20.82095 h 3.42667 v -8.68991 h 3.1383 l 6.3309,8.68991 h 4.02764 l -6.39339,-8.77673 c 0.73075,-0.0915 1.36668,-0.25516 1.90479,-0.49196 0.87717,-0.40436 1.55318,-0.91015 2.0283,-1.5167 0.47513,-0.60655 0.79467,-1.25906 0.95911,-1.9575 0.18272,-0.71683 0.2744,-1.37835 0.2744,-1.98489 0,-0.60656 -0.0917,-1.26807 -0.2744,-1.9849 -0.16444,-0.71683 -0.48398,-1.37886 -0.95911,-1.98541 -0.47512,-0.60655 -1.15113,-1.11182 -2.0283,-1.51618 -0.87715,-0.40438 -2.01044,-0.60668 -3.39929,-0.60668 z m 29.099,0 v 20.82146 h 3.42615 v -9.54412 l 9.65316,5.2e-4 v -2.9745 l -9.65316,-5.1e-4 v -5.15317 h 10.6872 v -3.14917 z m 26.39632,0 v 20.82146 h 3.42614 v -20.82146 z m 17.8449,0 v 20.82146 h 14.78103 v -3.14968 h -11.35436 v -5.99446 h 9.56842 v -2.9745 h -9.56842 v -5.55314 h 10.66292 v -3.14968 z m 53.41948,0 v 20.82146 h 8.11371 c 1.49852,0 2.79633,-0.27214 3.89279,-0.81648 1.09649,-0.54434 1.99173,-1.28324 2.68616,-2.21641 0.69442,-0.9526 1.20636,-2.06069 1.53529,-3.32434 0.34722,-1.26366 0.52039,-2.61487 0.52039,-4.0535 0,-1.43863 -0.17317,-2.78984 -0.52039,-4.0535 -0.32893,-1.26366 -0.84087,-2.36224 -1.53529,-3.29541 -0.69443,-0.95259 -1.58967,-1.70099 -2.68616,-2.24534 -1.09646,-0.54434 -2.39427,-0.81648 -3.89279,-0.81648 z m -148.59143,0.23978 -8.36538,20.58168 h 3.42614 l 6.08439,-15.70912 6.08438,15.70912 h 3.42614 l -8.19846,-20.58168 z m 25.2584,2.93987 h 5.63737 c 0.47069,0 0.91289,0.0435 1.32707,0.13022 0.41415,0.0867 0.78118,0.25125 1.10122,0.49403 0.32007,0.22546 0.57449,0.53751 0.76274,0.93637 0.1882,0.39888 0.28215,0.90198 0.28215,1.50896 0,0.58963 -0.11255,1.08371 -0.33848,1.48259 -0.20709,0.38153 -0.48977,0.69411 -0.84748,0.9369 -0.33888,0.22545 -0.71549,0.38997 -1.12967,0.49402 -0.41415,0.10408 -0.81902,0.15607 -1.21438,0.15607 h -5.58054 z m 126.7597,0.14934 h 3.37137 c 1.33403,0 2.47185,0.0225 3.31246,0.40204 0.85891,0.36057 1.47566,1.04007 1.9508,1.70429 0.49339,0.64524 0.82203,1.41386 0.98649,2.30581 0.18273,0.87296 0.2744,1.82205 0.2744,2.84685 0,1.02479 -0.0917,1.98281 -0.2744,2.87476 -0.16446,0.87298 -0.4931,1.64159 -0.98649,2.3058 -0.47514,0.64525 -1.14203,1.15783 -2.00092,1.53738 -0.84063,0.36057 -1.92831,0.54105 -3.26234,0.54105 h -3.37137 z"
       id="path867"
       inkscape:connector-curvature="0" />
  </g>
</svg>
