<svg id="svg" version="1.1" xmlns="http://www.w3.org/2000/svg" xmlns:xlink="http://www.w3.org/1999/xlink" width="400" height="344.93333333333334" viewBox="0, 0, 400,344.93333333333334"><g id="svgg"><path id="path1" d="M197.164 14.286 C 195.578 17.016,193.515 20.563,192.579 22.167 C 191.643 23.771,189.678 27.146,188.213 29.667 C 186.747 32.188,184.065 36.800,182.252 39.917 C 180.440 43.033,177.607 47.908,175.956 50.750 C 173.077 55.706,170.782 59.650,165.022 69.542 C 163.568 72.040,159.545 78.958,156.082 84.917 C 152.620 90.875,148.587 97.813,147.120 100.333 C 145.654 102.854,143.538 106.492,142.418 108.417 C 141.298 110.342,139.181 113.979,137.714 116.500 C 136.246 119.021,133.412 123.896,131.416 127.333 C 129.420 130.771,126.608 135.608,125.167 138.083 C 123.727 140.558,121.327 144.683,119.835 147.250 C 118.342 149.817,116.204 153.492,115.083 155.417 C 113.962 157.342,111.675 161.279,110.000 164.167 C 108.326 167.054,106.741 169.773,106.479 170.208 L 106.003 171.000 200.002 171.000 C 251.701 171.000,294.000 170.966,294.000 170.924 C 294.000 170.882,292.788 168.764,291.306 166.216 C 289.825 163.668,287.437 159.558,286.000 157.083 C 284.563 154.608,282.013 150.221,280.332 147.333 C 278.651 144.446,276.252 140.321,275.000 138.167 C 273.748 136.012,271.349 131.887,269.668 129.000 C 267.987 126.112,265.425 121.706,263.973 119.208 C 257.643 108.317,255.897 105.314,253.337 100.917 C 251.843 98.350,249.444 94.225,248.005 91.750 C 244.719 86.097,240.184 78.302,236.662 72.250 C 235.168 69.683,232.770 65.558,231.333 63.083 C 227.631 56.709,219.347 42.465,214.661 34.417 C 211.667 29.275,209.092 24.845,204.052 16.167 C 202.216 13.004,200.564 10.170,200.380 9.869 L 200.047 9.322 197.164 14.286 M102.091 177.627 C 101.362 178.886,99.632 181.867,98.245 184.250 C 96.859 186.633,94.200 191.208,92.337 194.417 C 90.474 197.625,88.183 201.563,87.246 203.167 C 85.651 205.899,83.239 210.046,75.956 222.583 C 74.305 225.425,71.754 229.813,70.286 232.333 C 63.879 243.342,53.565 261.075,48.622 269.583 C 46.971 272.425,44.420 276.813,42.953 279.333 C 36.424 290.549,34.868 293.224,32.044 298.083 C 29.094 303.162,25.053 310.112,19.786 319.167 C 18.320 321.688,16.183 325.362,15.036 327.333 C 13.890 329.304,12.171 332.255,11.215 333.891 C 10.259 335.528,9.508 336.896,9.544 336.933 C 9.581 336.970,51.886 336.981,103.555 336.958 L 197.498 336.917 193.817 330.583 C 191.792 327.100,188.892 322.112,187.373 319.500 C 185.854 316.887,183.587 312.987,182.335 310.833 C 179.631 306.180,176.415 300.651,171.915 292.917 C 167.112 284.663,163.675 278.754,160.332 273.000 C 157.553 268.218,155.966 265.489,149.330 254.083 C 147.837 251.517,145.416 247.354,143.950 244.833 C 138.454 235.380,134.609 228.769,127.666 216.833 C 125.987 213.946,123.437 209.558,122.000 207.083 C 120.563 204.608,118.012 200.221,116.331 197.333 C 109.230 185.136,108.023 183.058,105.859 179.297 C 104.607 177.123,103.546 175.343,103.500 175.341 C 103.454 175.339,102.820 176.368,102.091 177.627 M296.314 175.805 C 295.813 176.664,290.592 185.636,287.617 190.750 C 281.455 201.343,279.213 205.199,276.667 209.583 C 275.230 212.058,272.831 216.183,271.338 218.750 C 267.519 225.310,263.778 231.741,260.333 237.667 C 256.889 243.592,253.147 250.024,249.329 256.583 C 247.835 259.150,245.437 263.275,244.000 265.750 C 242.563 268.225,240.013 272.612,238.334 275.500 C 236.654 278.387,234.255 282.512,233.002 284.667 C 231.749 286.821,229.349 290.946,227.668 293.833 C 225.987 296.721,223.437 301.108,222.000 303.583 C 220.563 306.058,218.013 310.446,216.332 313.333 C 203.923 334.654,202.646 336.868,202.713 336.935 C 202.749 336.971,245.051 336.981,296.717 336.958 L 390.656 336.917 388.522 333.250 C 387.349 331.233,384.864 326.958,383.001 323.750 C 381.138 320.542,378.737 316.417,377.666 314.583 C 376.595 312.750,374.368 308.925,372.717 306.083 C 371.066 303.242,367.142 296.492,363.998 291.083 C 360.853 285.675,356.820 278.737,355.035 275.667 C 353.250 272.596,351.134 268.958,350.334 267.583 C 349.533 266.208,347.679 263.021,346.213 260.500 C 344.747 257.979,342.064 253.367,340.251 250.250 C 338.438 247.133,335.604 242.258,333.953 239.417 C 332.302 236.575,329.751 232.188,328.285 229.667 C 322.682 220.036,321.468 217.949,318.881 213.500 C 317.415 210.979,314.754 206.404,312.967 203.333 C 311.180 200.262,308.346 195.387,306.669 192.500 C 304.992 189.612,302.440 185.225,300.999 182.750 C 299.557 180.275,298.024 177.632,297.592 176.876 C 296.658 175.245,296.647 175.235,296.314 175.805 " stroke="none" fill="#ffd900" fill-rule="evenodd"></path></g></svg>